{
  "accessors": [
    {
      "bufferView": 2,
      "componentType": 5126,
      "count": 39127,
      "max": [
        1.7959489822387695,
        2.6007111072540283,
        2.2267160415649414
      ],
      "min": [
        -1.6966739892959595,
        -2.6834690570831299,
        -2.164794921875
      ],
      "type": "VEC3"
    },
    {
      "bufferView": 2,
      "byteOffset": 469524,
      "componentType": 5126,
      "count": 39127,
      "max": [
        0.9999997615814209,
        0.99999761581420898,
        0.99999463558197021
      ],
      "min": [
        -0.99999058246612549,
        -0.99999594688415527,
        -0.99999380111694336
      ],
      "type": "VEC3"
    },
    {
      "bufferView": 3,
      "componentType": 5126,
      "count": 39127,
      "max": [
        0.9999929666519165,
        0.99990737438201904,
        0.99999821186065674,
        1
      ],
      "min": [
        -0.99999666213989258,
        -0.9999961256980896,
        -1,
        -1
      ],
      "type": "VEC4"
    },
    {
      "bufferView": 1,
      "componentType": 5126,
      "count": 39127,
      "max": [
        0.99576002359390259,
        0.99943101406097412
      ],
      "min": [
        0.0030020000413060188,
        0.0041140001267194748
      ],
      "type": "VEC2"
    },
    {
      "bufferView": 0,
      "componentType": 5125,
      "count": 192000,
      "max": [
        39126
      ],
      "min": [
        0
      ],
      "type": "SCALAR"
    }
  ],
  "asset": {
    "extras": {
      "author": "Minneapolis Institute of Art (https://sketchfab.com/artsmia)",
      "license": "CC-BY-NC-SA-4.0 (http://creativecommons.org/licenses/by-nc-sa/4.0/)",
      "source": "https://sketchfab.com/3d-models/gui-food-vessel-11th-century-bce-85ec0a0f63934658928e77a8696a25bb",
      "title": "Gui Food Vessel, 11th Century BCE"
    },
    "generator": "Sketchfab-8.59.0",
    "version": "2.0"
  },
  "bufferViews": [
    {
      "buffer": 0,
      "byteLength": 768000,
      "byteOffset": 0,
      "name": "floatBufferViews",
      "target": 34963
    },
    {
      "buffer": 0,
      "byteLength": 313016,
      "byteOffset": 768000,
      "byteStride": 8,
      "name": "floatBufferViews",
      "target": 34962
    },
    {
      "buffer": 0,
      "byteLength": 939048,
      "byteOffset": 1081016,
      "byteStride": 12,
      "name": "floatBufferViews",
      "target": 34962
    },
    {
      "buffer": 0,
      "byteLength": 626032,
      "byteOffset": 2020064,
      "byteStride": 16,
      "name": "floatBufferViews",
      "target": 34962
    }
  ],
  "buffers": [
    {
      "byteLength": 2646096,
      "uri": "scene6.bin"
    }
  ],
  "images": [
    {
      "uri": "textures/150804_mia337_001141_1Mfaces_OBJ.001_baseColor.jpeg"
    },
    {
      "uri": "textures/150804_mia337_001141_1Mfaces_OBJ.001_normal.png"
    }
  ],
  "materials": [
    {
      "doubleSided": true,
      "name": "150804_mia337_001141_1Mfaces_OBJ.001",
      "normalTexture": {
        "index": 1,
        "scale": 1,
        "texCoord": 0
      },
      "pbrMetallicRoughness": {
        "baseColorFactor": [
          1,
          1,
          1,
          1
        ],
        "baseColorTexture": {
          "index": 0,
          "texCoord": 0
        },
        "metallicFactor": 0,
        "roughnessFactor": 0.59999999999999998
      }
    }
  ],
  "meshes": [
    {
      "primitives": [
        {
          "attributes": {
            "NORMAL": 1,
            "POSITION": 0,
            "TANGENT": 2,
            "TEXCOORD_0": 3
          },
          "indices": 4,
          "material": 0,
          "mode": 4
        }
      ]
    }
  ],
  "nodes": [
    {
      "children": [
        1
      ],
      "name": "RootNode (gltf orientation matrix)",
      "rotation": [
        -0.70710678118654746,
        -0,
        -0,
        0.70710678118654757
      ]
    },
    {
      "children": [
        2
      ],
      "matrix": [
        0.097001299262046814,
        0,
        0,
        0,
        0,
        0.097001299262046814,
        0,
        0,
        0,
        0,
        0.097001299262046814,
        0,
        0,
        0,
        0,
        1
      ],
      "name": "RootNode (model correction matrix)"
    },
    {
      "children": [
        3
      ],
      "name": "150804_mia337_001141_64K_OBJ.obj.cleaner.materialmerger.gles"
    },
    {
      "mesh": 0,
      "name": ""
    }
  ],
  "samplers": [
    {
      "magFilter": 9729,
      "minFilter": 9987,
      "wrapS": 10497,
      "wrapT": 10497
    }
  ],
  "scene": 0,
  "scenes": [
    {
      "name": "OSG_Scene",
      "nodes": [
        0
      ]
    }
  ],
  "textures": [
    {
      "sampler": 0,
      "source": 0
    },
    {
      "sampler": 0,
      "source": 1
    }
  ]
}

