{
  "accessors": [
    {
      "bufferView": 2,
      "componentType": 5126,
      "count": 36608,
      "max": [
        1.8555289506912231,
        1.9091939926147461,
        2.6945240497589111
      ],
      "min": [
        -2.0353260040283203,
        -1.8759399652481079,
        -2.0162820816040039
      ],
      "type": "VEC3"
    },
    {
      "bufferView": 2,
      "byteOffset": 439296,
      "componentType": 5126,
      "count": 36608,
      "max": [
        0.99999725818634033,
        0.99998164176940918,
        0.99998903274536133
      ],
      "min": [
        -0.999991774559021,
        -0.99999797344207764,
        -0.99999845027923584
      ],
      "type": "VEC3"
    },
    {
      "bufferView": 3,
      "componentType": 5126,
      "count": 36608,
      "max": [
        0.99997955560684204,
        0.99993735551834106,
        0.99994415044784546,
        1
      ],
      "min": [
        -0.99998605251312256,
        -0.99992114305496216,
        -0.99999809265136719,
        -1
      ],
      "type": "VEC4"
    },
    {
      "bufferView": 1,
      "componentType": 5126,
      "count": 36608,
      "max": [
        0.99413299560546875,
        0.99700599908828735
      ],
      "min": [
        0.0045210001990199089,
        0.0041749998927116394
      ],
      "type": "VEC2"
    },
    {
      "bufferView": 0,
      "componentType": 5125,
      "count": 192000,
      "max": [
        36607
      ],
      "min": [
        0
      ],
      "type": "SCALAR"
    }
  ],
  "asset": {
    "extras": {
      "author": "Minneapolis Institute of Art (https://sketchfab.com/artsmia)",
      "license": "CC-BY-NC-SA-4.0 (http://creativecommons.org/licenses/by-nc-sa/4.0/)",
      "source": "https://sketchfab.com/3d-models/liding-food-vessel-12th-11th-century-bce-605e4d63ca1f40c0827d5244c490b482",
      "title": "Liding Food Vessel, 12th-11th Century BCE"
    },
    "generator": "Sketchfab-8.55.0",
    "version": "2.0"
  },
  "bufferViews": [
    {
      "buffer": 0,
      "byteLength": 768000,
      "byteOffset": 0,
      "name": "floatBufferViews",
      "target": 34963
    },
    {
      "buffer": 0,
      "byteLength": 292864,
      "byteOffset": 768000,
      "byteStride": 8,
      "name": "floatBufferViews",
      "target": 34962
    },
    {
      "buffer": 0,
      "byteLength": 878592,
      "byteOffset": 1060864,
      "byteStride": 12,
      "name": "floatBufferViews",
      "target": 34962
    },
    {
      "buffer": 0,
      "byteLength": 585728,
      "byteOffset": 1939456,
      "byteStride": 16,
      "name": "floatBufferViews",
      "target": 34962
    }
  ],
  "buffers": [
    {
      "byteLength": 2525184,
      "uri": "scene8.bin"
    }
  ],
  "images": [
    {
      "uri": "textures/150625_mia337_001113_1Mfaces_OBJ.001_baseColor.jpeg"
    },
    {
      "uri": "textures/150625_mia337_001113_1Mfaces_OBJ.001_normal.jpeg"
    }
  ],
  "materials": [
    {
      "doubleSided": true,
      "name": "150625_mia337_001113_1Mfaces_OBJ.001",
      "normalTexture": {
        "index": 1,
        "scale": 1,
        "texCoord": 0
      },
      "pbrMetallicRoughness": {
        "baseColorFactor": [
          1,
          1,
          1,
          1
        ],
        "baseColorTexture": {
          "index": 0,
          "texCoord": 0
        },
        "metallicFactor": 0,
        "roughnessFactor": 0.59999999999999998
      }
    }
  ],
  "meshes": [
    {
      "primitives": [
        {
          "attributes": {
            "NORMAL": 1,
            "POSITION": 0,
            "TANGENT": 2,
            "TEXCOORD_0": 3
          },
          "indices": 4,
          "material": 0,
          "mode": 4
        }
      ]
    }
  ],
  "nodes": [
    {
      "children": [
        1
      ],
      "name": "RootNode (gltf orientation matrix)",
      "rotation": [
        -0.70710678118654746,
        -0,
        -0,
        0.70710678118654757
      ]
    },
    {
      "children": [
        2
      ],
      "matrix": [
        0.054551959037780762,
        0,
        0,
        0,
        0,
        0.054551959037780762,
        0,
        0,
        0,
        0,
        0.054551959037780762,
        0,
        0,
        0,
        0,
        1
      ],
      "name": "RootNode (model correction matrix)"
    },
    {
      "children": [
        3
      ],
      "name": "150625_mia337_001113_64K_OBJ.obj.cleaner.materialmerger.gles"
    },
    {
      "mesh": 0,
      "name": ""
    }
  ],
  "samplers": [
    {
      "magFilter": 9729,
      "minFilter": 9987,
      "wrapS": 10497,
      "wrapT": 10497
    }
  ],
  "scene": 0,
  "scenes": [
    {
      "name": "OSG_Scene",
      "nodes": [
        0
      ]
    }
  ],
  "textures": [
    {
      "sampler": 0,
      "source": 0
    },
    {
      "sampler": 0,
      "source": 1
    }
  ]
}

