{
  "accessors": [
    {
      "bufferView": 2,
      "componentType": 5126,
      "count": 65532,
      "max": [
        1.5373950004577637,
        12.619098663330078,
        -0.40209499001502991
      ],
      "min": [
        -0.87608301639556885,
        10.137466430664062,
        -2.7560200691223145
      ],
      "type": "VEC3"
    },
    {
      "bufferView": 2,
      "byteOffset": 786384,
      "componentType": 5126,
      "count": 65532,
      "max": [
        0.99998486042022705,
        0.99983400106430054,
        0.99998784065246582
      ],
      "min": [
        -0.99995070695877075,
        -0.9999958872795105,
        -0.99998831748962402
      ],
      "type": "VEC3"
    },
    {
      "bufferView": 3,
      "componentType": 5126,
      "count": 65532,
      "max": [
        0.96078431606292725,
        0.92549020051956177,
        0.96078431606292725,
        1
      ],
      "min": [
        0.015686275437474251,
        0.019607843831181526,
        0.0078431377187371254,
        1
      ],
      "type": "VEC4"
    },
    {
      "bufferView": 1,
      "componentType": 5126,
      "count": 65532,
      "max": [
        0.99887901544570923,
        0.99801301956176758
      ],
      "min": [
        1.2999999853491317e-05,
        2.7000000045518391e-05
      ],
      "type": "VEC2"
    },
    {
      "bufferView": 0,
      "componentType": 5125,
      "count": 347433,
      "max": [
        65531
      ],
      "min": [
        0
      ],
      "type": "SCALAR"
    },
    {
      "bufferView": 2,
      "byteOffset": 1572768,
      "componentType": 5126,
      "count": 65532,
      "max": [
        2.2965600490570068,
        13.090375900268555,
        -0.40255099534988403
      ],
      "min": [
        -0.020640000700950623,
        10.433126449584961,
        -2.4950149059295654
      ],
      "type": "VEC3"
    },
    {
      "bufferView": 2,
      "byteOffset": 2359152,
      "componentType": 5126,
      "count": 65532,
      "max": [
        0.99998140335083008,
        0.99972665309906006,
        0.99999231100082397
      ],
      "min": [
        -0.99995112419128418,
        -0.99995225667953491,
        -0.99993705749511719
      ],
      "type": "VEC3"
    },
    {
      "bufferView": 3,
      "byteOffset": 1048512,
      "componentType": 5126,
      "count": 65532,
      "max": [
        0.92156863212585449,
        0.92941176891326904,
        0.98039215803146362,
        1
      ],
      "min": [
        0.035294119268655777,
        0.039215687662363052,
        0.027450980618596077,
        1
      ],
      "type": "VEC4"
    },
    {
      "bufferView": 1,
      "byteOffset": 524256,
      "componentType": 5126,
      "count": 65532,
      "max": [
        0.9989590048789978,
        0.99899697303771973
      ],
      "min": [
        2.0999999833293259e-05,
        0.00017400000069756061
      ],
      "type": "VEC2"
    },
    {
      "bufferView": 0,
      "byteOffset": 1389732,
      "componentType": 5125,
      "count": 330048,
      "max": [
        65531
      ],
      "min": [
        0
      ],
      "type": "SCALAR"
    },
    {
      "bufferView": 2,
      "byteOffset": 3145536,
      "componentType": 5126,
      "count": 13058,
      "max": [
        2.3573811054229736,
        13.190089225769043,
        -0.79175597429275513
      ],
      "min": [
        -0.85733997821807861,
        11.006184577941895,
        -2.7304120063781738
      ],
      "type": "VEC3"
    },
    {
      "bufferView": 2,
      "byteOffset": 3302232,
      "componentType": 5126,
      "count": 13058,
      "max": [
        0.99990034103393555,
        0.99893712997436523,
        0.99911141395568848
      ],
      "min": [
        -0.99995112419128418,
        -0.99952667951583862,
        -0.99870437383651733
      ],
      "type": "VEC3"
    },
    {
      "bufferView": 3,
      "byteOffset": 2097024,
      "componentType": 5126,
      "count": 13058,
      "max": [
        0.85490196943283081,
        0.83921569585800171,
        0.87450981140136719,
        1
      ],
      "min": [
        0.062745101749897003,
        0.078431375324726105,
        0.058823529630899429,
        1
      ],
      "type": "VEC4"
    },
    {
      "bufferView": 1,
      "byteOffset": 1048512,
      "componentType": 5126,
      "count": 13058,
      "max": [
        0.99852997064590454,
        0.99702399969100952
      ],
      "min": [
        0.00011200000153621659,
        0.0011180000146850944
      ],
      "type": "VEC2"
    },
    {
      "bufferView": 0,
      "byteOffset": 2709924,
      "componentType": 5125,
      "count": 56610,
      "max": [
        13057
      ],
      "min": [
        0
      ],
      "type": "SCALAR"
    }
  ],
  "asset": {
    "extras": {
      "author": "hadassahphoto20 (https://sketchfab.com/hadassahphoto20)",
      "license": "CC-BY-4.0 (http://creativecommons.org/licenses/by/4.0/)",
      "source": "https://sketchfab.com/3d-models/roi-boshi-chinese-tiger-statue-6bd7b3d55c684579a1b6916636523db0",
      "title": "Roi Boshi - Chinese tiger statue"
    },
    "generator": "Sketchfab-8.55.0",
    "version": "2.0"
  },
  "bufferViews": [
    {
      "buffer": 0,
      "byteLength": 2936364,
      "byteOffset": 0,
      "name": "floatBufferViews",
      "target": 34963
    },
    {
      "buffer": 0,
      "byteLength": 1152976,
      "byteOffset": 2936364,
      "byteStride": 8,
      "name": "floatBufferViews",
      "target": 34962
    },
    {
      "buffer": 0,
      "byteLength": 3458928,
      "byteOffset": 4089340,
      "byteStride": 12,
      "name": "floatBufferViews",
      "target": 34962
    },
    {
      "buffer": 0,
      "byteLength": 2305952,
      "byteOffset": 7548268,
      "byteStride": 16,
      "name": "floatBufferViews",
      "target": 34962
    }
  ],
  "buffers": [
    {
      "byteLength": 9854220,
      "uri": "scene9.bin"
    }
  ],
  "materials": [
    {
      "doubleSided": true,
      "emissiveFactor": [
        0,
        0,
        0
      ],
      "name": "Chinese_tiger_statue",
      "pbrMetallicRoughness": {
        "baseColorFactor": [
          1,
          1,
          1,
          1
        ],
        "metallicFactor": 0.4577536513881964,
        "roughnessFactor": 0.94356461832200322
      }
    }
  ],
  "meshes": [
    {
      "primitives": [
        {
          "attributes": {
            "COLOR_0": 2,
            "NORMAL": 1,
            "POSITION": 0,
            "TEXCOORD_0": 3
          },
          "indices": 4,
          "material": 0,
          "mode": 4
        }
      ]
    },
    {
      "primitives": [
        {
          "attributes": {
            "COLOR_0": 7,
            "NORMAL": 6,
            "POSITION": 5,
            "TEXCOORD_0": 8
          },
          "indices": 9,
          "material": 0,
          "mode": 4
        }
      ]
    },
    {
      "primitives": [
        {
          "attributes": {
            "COLOR_0": 12,
            "NORMAL": 11,
            "POSITION": 10,
            "TEXCOORD_0": 13
          },
          "indices": 14,
          "material": 0,
          "mode": 4
        }
      ]
    }
  ],
  "nodes": [
    {
      "children": [
        1
      ],
      "name": "RootNode (gltf orientation matrix)",
      "rotation": [
        -0.70710678118654746,
        -0,
        -0,
        0.70710678118654757
      ]
    },
    {
      "children": [
        2
      ],
      "matrix": [
        0.85083824396133423,
        -0.47756198048591614,
        0.21910905838012695,
        0,
        0.47051432728767395,
        0.50690096616744995,
        -0.72226566076278687,
        0,
        0.23386003077030182,
        0.7176252007484436,
        0.65599054098129272,
        0,
        -5.0082354545593262,
        7.2382903099060059,
        7.718876838684082,
        1
      ],
      "name": "RootNode (model correction matrix)"
    },
    {
      "children": [
        3,
        4,
        5
      ],
      "name": "Chinese tiger statue.obj.cleaner.materialmerger.gles"
    },
    {
      "mesh": 0,
      "name": ""
    },
    {
      "mesh": 1,
      "name": ""
    },
    {
      "mesh": 2,
      "name": ""
    }
  ],
  "scene": 0,
  "scenes": [
    {
      "name": "OSG_Scene",
      "nodes": [
        0
      ]
    }
  ]
}

