{
  "accessors": [
    {
      "bufferView": 2,
      "componentType": 5126,
      "count": 65532,
      "max": [
        0.08541572093963623,
        0.20264759659767151,
        0.085930682718753815
      ],
      "min": [
        -0.085356071591377258,
        -0.20264500379562378,
        -0.085921846330165863
      ],
      "type": "VEC3"
    },
    {
      "bufferView": 2,
      "byteOffset": 786384,
      "componentType": 5126,
      "count": 65532,
      "max": [
        0.99997997283935547,
        0.99999988079071045,
        0.99999487400054932
      ],
      "min": [
        -0.99997520446777344,
        -0.99999773502349854,
        -0.99999892711639404
      ],
      "type": "VEC3"
    },
    {
      "bufferView": 3,
      "componentType": 5126,
      "count": 65532,
      "max": [
        0.99999666213989258,
        0.9995189905166626,
        0.99998974800109863,
        1
      ],
      "min": [
        -0.99999994039535522,
        -0.9997553825378418,
        -0.99999856948852539,
        -1
      ],
      "type": "VEC4"
    },
    {
      "bufferView": 1,
      "componentType": 5126,
      "count": 65532,
      "max": [
        0.98514407873153687,
        0.998046875
      ],
      "min": [
        0.001953125,
        0.001953125
      ],
      "type": "VEC2"
    },
    {
      "bufferView": 1,
      "byteOffset": 524256,
      "componentType": 5126,
      "count": 65532,
      "max": [
        0.98514407873153687,
        0.998046875
      ],
      "min": [
        0.001953125,
        0.001953125
      ],
      "type": "VEC2"
    },
    {
      "bufferView": 1,
      "byteOffset": 1048512,
      "componentType": 5126,
      "count": 65532,
      "max": [
        0.98514407873153687,
        0.998046875
      ],
      "min": [
        0.001953125,
        0.001953125
      ],
      "type": "VEC2"
    },
    {
      "bufferView": 0,
      "componentType": 5125,
      "count": 376443,
      "max": [
        65531
      ],
      "min": [
        0
      ],
      "type": "SCALAR"
    },
    {
      "bufferView": 2,
      "byteOffset": 1572768,
      "componentType": 5126,
      "count": 16720,
      "max": [
        0.085426680743694305,
        0.20263099670410156,
        0.085918597877025604
      ],
      "min": [
        -0.085422739386558533,
        -0.20167799293994904,
        -0.085921846330165863
      ],
      "type": "VEC3"
    },
    {
      "bufferView": 2,
      "byteOffset": 1773408,
      "componentType": 5126,
      "count": 16720,
      "max": [
        0.99998939037322998,
        0.99999022483825684,
        0.99997419118881226
      ],
      "min": [
        -0.99998486042022705,
        -0.99852347373962402,
        -0.99999892711639404
      ],
      "type": "VEC3"
    },
    {
      "bufferView": 3,
      "byteOffset": 1048512,
      "componentType": 5126,
      "count": 16720,
      "max": [
        0.99994540214538574,
        0.98077100515365601,
        0.99999737739562988,
        1
      ],
      "min": [
        -0.99999105930328369,
        -0.99999946355819702,
        -0.99997138977050781,
        -1
      ],
      "type": "VEC4"
    },
    {
      "bufferView": 1,
      "byteOffset": 1572768,
      "componentType": 5126,
      "count": 16720,
      "max": [
        0.99398428201675415,
        0.998046875
      ],
      "min": [
        0.001953125,
        0.019449114799499512
      ],
      "type": "VEC2"
    },
    {
      "bufferView": 1,
      "byteOffset": 1706528,
      "componentType": 5126,
      "count": 16720,
      "max": [
        0.99398428201675415,
        0.998046875
      ],
      "min": [
        0.001953125,
        0.019449114799499512
      ],
      "type": "VEC2"
    },
    {
      "bufferView": 1,
      "byteOffset": 1840288,
      "componentType": 5126,
      "count": 16720,
      "max": [
        0.99398428201675415,
        0.998046875
      ],
      "min": [
        0.001953125,
        0.019449114799499512
      ],
      "type": "VEC2"
    },
    {
      "bufferView": 0,
      "byteOffset": 1505772,
      "componentType": 5125,
      "count": 73554,
      "max": [
        16719
      ],
      "min": [
        0
      ],
      "type": "SCALAR"
    }
  ],
  "asset": {
    "extras": {
      "author": "Smithsonian Institution (https://sketchfab.com/Smithsonian)",
      "license": "CC0-1.0 (http://creativecommons.org/publicdomain/zero/1.0/)",
      "source": "https://sketchfab.com/3d-models/baluster-vase-from-a-five-piece-garniture-76a3f7bf75d049458dfaa48aa342e0b8",
      "title": "Baluster vase, from a five-piece garniture"
    },
    "generator": "Sketchfab-7.80.0",
    "version": "2.0"
  },
  "bufferViews": [
    {
      "buffer": 0,
      "byteLength": 1799988,
      "byteOffset": 0,
      "name": "floatBufferViews",
      "target": 34963
    },
    {
      "buffer": 0,
      "byteLength": 1974048,
      "byteOffset": 1799988,
      "byteStride": 8,
      "name": "floatBufferViews",
      "target": 34962
    },
    {
      "buffer": 0,
      "byteLength": 1974048,
      "byteOffset": 3774036,
      "byteStride": 12,
      "name": "floatBufferViews",
      "target": 34962
    },
    {
      "buffer": 0,
      "byteLength": 1316032,
      "byteOffset": 5748084,
      "byteStride": 16,
      "name": "floatBufferViews",
      "target": 34962
    }
  ],
  "buffers": [
    {
      "byteLength": 7064116,
      "uri": "scene1.bin"
    }
  ],
  "images": [
    {
      "uri": "textures/default_baseColor.jpeg"
    },
    {
      "uri": "textures/default_metallicRoughness.png"
    },
    {
      "uri": "textures/default_normal.jpeg"
    }
  ],
  "materials": [
    {
      "doubleSided": false,
      "emissiveFactor": [
        0,
        0,
        0
      ],
      "name": "default",
      "normalTexture": {
        "index": 2,
        "scale": 1,
        "texCoord": 2
      },
      "occlusionTexture": {
        "index": 1,
        "strength": 1,
        "texCoord": 1
      },
      "pbrMetallicRoughness": {
        "baseColorFactor": [
          1,
          1,
          1,
          1
        ],
        "baseColorTexture": {
          "index": 0,
          "texCoord": 0
        },
        "metallicFactor": 0.10000000000000001,
        "metallicRoughnessTexture": {
          "index": 1,
          "texCoord": 1
        },
        "roughnessFactor": 0.35924243349017521
      }
    }
  ],
  "meshes": [
    {
      "primitives": [
        {
          "attributes": {
            "NORMAL": 1,
            "POSITION": 0,
            "TANGENT": 2,
            "TEXCOORD_0": 3,
            "TEXCOORD_1": 4,
            "TEXCOORD_2": 5
          },
          "indices": 6,
          "material": 0,
          "mode": 4
        }
      ]
    },
    {
      "primitives": [
        {
          "attributes": {
            "NORMAL": 8,
            "POSITION": 7,
            "TANGENT": 9,
            "TEXCOORD_0": 10,
            "TEXCOORD_1": 11,
            "TEXCOORD_2": 12
          },
          "indices": 13,
          "material": 0,
          "mode": 4
        }
      ]
    }
  ],
  "nodes": [
    {
      "children": [
        1
      ],
      "name": "RootNode (gltf orientation matrix)",
      "rotation": [
        -0.70710678118654746,
        -0,
        -0,
        0.70710678118654757
      ]
    },
    {
      "children": [
        2
      ],
      "name": "RootNode (model correction matrix)"
    },
    {
      "children": [
        3
      ],
      "name": "root"
    },
    {
      "children": [
        4
      ],
      "matrix": [
        1,
        0,
        0,
        0,
        0,
        2.2204460492503131e-16,
        1,
        0,
        0,
        -1,
        2.2204460492503131e-16,
        0,
        0,
        0,
        0,
        1
      ],
      "name": "GLTF_SceneRootNode"
    },
    {
      "children": [
        5,
        6
      ],
      "name": "_0"
    },
    {
      "mesh": 0,
      "name": ""
    },
    {
      "mesh": 1,
      "name": ""
    }
  ],
  "samplers": [
    {
      "magFilter": 9729,
      "minFilter": 9987,
      "wrapS": 10497,
      "wrapT": 10497
    }
  ],
  "scene": 0,
  "scenes": [
    {
      "name": "OSG_Scene",
      "nodes": [
        0
      ]
    }
  ],
  "textures": [
    {
      "sampler": 0,
      "source": 0
    },
    {
      "sampler": 0,
      "source": 1
    },
    {
      "sampler": 0,
      "source": 2
    }
  ]
}

