{
  "accessors": [
    {
      "bufferView": 2,
      "componentType": 5126,
      "count": 40434,
      "max": [
        0.10156299918889999,
        0.10459200292825699,
        0.19787199795246124
      ],
      "min": [
        -0.09889499843120575,
        -0.10463400185108185,
        -0.16313600540161133
      ],
      "type": "VEC3"
    },
    {
      "bufferView": 2,
      "byteOffset": 485208,
      "componentType": 5126,
      "count": 40434,
      "max": [
        0.99999463558197021,
        0.9999995231628418,
        0.9999396800994873
      ],
      "min": [
        -0.99999940395355225,
        -0.99999797344207764,
        -0.99999964237213135
      ],
      "type": "VEC3"
    },
    {
      "bufferView": 3,
      "componentType": 5126,
      "count": 40434,
      "max": [
        0.99999642372131348,
        1,
        0.99999940395355225,
        1
      ],
      "min": [
        -0.9999992847442627,
        -0.99998855590820312,
        -0.99999791383743286,
        -1
      ],
      "type": "VEC4"
    },
    {
      "bufferView": 1,
      "componentType": 5126,
      "count": 40434,
      "max": [
        0.99427402019500732,
        1.0017789602279663
      ],
      "min": [
        0.0017659999430179596,
        0.0036369999870657921
      ],
      "type": "VEC2"
    },
    {
      "bufferView": 0,
      "componentType": 5125,
      "count": 192054,
      "max": [
        40433
      ],
      "min": [
        0
      ],
      "type": "SCALAR"
    }
  ],
  "asset": {
    "extras": {
      "author": "Minneapolis Institute of Art (https://sketchfab.com/artsmia)",
      "license": "CC-BY-NC-SA-4.0 (http://creativecommons.org/licenses/by-nc-sa/4.0/)",
      "source": "https://sketchfab.com/3d-models/fanghu-wine-vessel-5th-4th-century-bce-e2e70b742453405fa901d59722d13736",
      "title": "Fanghu Wine Vessel, 5th - 4th Century BCE"
    },
    "generator": "Sketchfab-8.47.0",
    "version": "2.0"
  },
  "bufferViews": [
    {
      "buffer": 0,
      "byteLength": 768216,
      "byteOffset": 0,
      "name": "floatBufferViews",
      "target": 34963
    },
    {
      "buffer": 0,
      "byteLength": 323472,
      "byteOffset": 768216,
      "byteStride": 8,
      "name": "floatBufferViews",
      "target": 34962
    },
    {
      "buffer": 0,
      "byteLength": 970416,
      "byteOffset": 1091688,
      "byteStride": 12,
      "name": "floatBufferViews",
      "target": 34962
    },
    {
      "buffer": 0,
      "byteLength": 646944,
      "byteOffset": 2062104,
      "byteStride": 16,
      "name": "floatBufferViews",
      "target": 34962
    }
  ],
  "buffers": [
    {
      "byteLength": 2709048,
      "uri": "scene3.bin"
    }
  ],
  "images": [
    {
      "uri": "textures/150507_mia337_001160_501_1Mfaces_OBJ.001_baseColor.jpeg"
    },
    {
      "uri": "textures/150507_mia337_001160_501_1Mfaces_OBJ.001_normal.jpeg"
    }
  ],
  "materials": [
    {
      "doubleSided": true,
      "name": "150507_mia337_001160_501_1Mfaces_OBJ.001",
      "normalTexture": {
        "index": 1,
        "scale": 1,
        "texCoord": 0
      },
      "pbrMetallicRoughness": {
        "baseColorFactor": [
          1,
          1,
          1,
          1
        ],
        "baseColorTexture": {
          "index": 0,
          "texCoord": 0
        },
        "metallicFactor": 0,
        "roughnessFactor": 0.59999999999999998
      }
    }
  ],
  "meshes": [
    {
      "primitives": [
        {
          "attributes": {
            "NORMAL": 1,
            "POSITION": 0,
            "TANGENT": 2,
            "TEXCOORD_0": 3
          },
          "indices": 4,
          "material": 0,
          "mode": 4
        }
      ]
    }
  ],
  "nodes": [
    {
      "children": [
        1
      ],
      "name": "RootNode (gltf orientation matrix)",
      "rotation": [
        -0.70710678118654746,
        -0,
        -0,
        0.70710678118654757
      ]
    },
    {
      "children": [
        2
      ],
      "name": "RootNode (model correction matrix)"
    },
    {
      "children": [
        3
      ],
      "name": "150507_mia337_001160_64K_OBJ.obj.cleaner.materialmerger.gles"
    },
    {
      "mesh": 0,
      "name": ""
    }
  ],
  "samplers": [
    {
      "magFilter": 9729,
      "minFilter": 9987,
      "wrapS": 10497,
      "wrapT": 10497
    }
  ],
  "scene": 0,
  "scenes": [
    {
      "name": "OSG_Scene",
      "nodes": [
        0
      ]
    }
  ],
  "textures": [
    {
      "sampler": 0,
      "source": 0
    },
    {
      "sampler": 0,
      "source": 1
    }
  ]
}

